# AST/ASF file generated using VICON BodyLanguage
# -----------------------------------------------
:version 1.10
:name VICON
:units
  mass 1.0
  length 0.45
  angle deg
:documentation
   .ast/.asf automatically generated from VICON data using
   VICON BodyBuilder and BodyLanguage model FoxedUp or BRILLIANT.MOD
:root
   order TX TY TZ RX RY RZ
   axis XYZ
   position 0 0 0  
   orientation 0 0 0 
:bonedata
  begin
     id 1 
     name lhipjoint
     direction 0.537252 -0.787203 0.302774 
     length 2.29576 
     axis 0 0 0  XYZ
  end
  begin
     id 2 
     name lfemur
     direction 0.34202 -0.939693 0  
     length 7.31114  
     axis 0 0 20  XYZ
    dof rx ry rz
    limits (-160.0 20.0)
           (-70.0 70.0)
           (-60.0 70.0)
  end
  begin
     id 3 
     name ltibia
     direction 0.34202 -0.939693 0   
     length 8.36008   
     axis 0 0 20   XYZ
    dof rx
    limits (-10.0 170.0)
  end
  begin
     id 4 
     name lfoot
     direction 0.0969116 -0.266263 0.959016   
     length 2.16704   
     axis -90 7.62852e-016 20   XYZ
    dof rx rz
    limits (-45.0 90.0)
           (-70.0 20.0)
  end
  begin
     id 5 
     name ltoes
     direction 1.53563e-011 -4.21779e-011 1   
     length 1.08338   
     axis -90 7.62852e-016 20   XYZ
    dof rx
    limits (-90.0 20.0)
  end
  begin
     id 6 
     name rhipjoint
     direction -0.588228 -0.754791 0.290308   
     length 2.39434  
     axis 0 0 0  XYZ 
  end
  begin
     id 7 
     name rfemur
     direction -0.34202 -0.939693 0   
     length 7.45207   
     axis 0 0 -20   XYZ
    dof rx ry rz
    limits (-160.0 20.0)
           (-70.0 70.0)
           (-70.0 60.0)
  end
  begin
     id 8 
     name rtibia
     direction -0.34202 -0.939693 0   
     length 8.03565   
     axis 0 0 -20   XYZ
    dof rx
    limits (-10.0 170.0)
 end
 begin
     id 9 
     name rfoot
     direction -0.107009 -0.294004 0.949795   
     length 2.11509  
     axis -90 -7.62852e-016 -20   XYZ
    dof rx rz
    limits (-45.0 90.0)
           (-20.0 70.0)
  end
  begin
     id 10 
     name rtoes
     direction -1.53533e-011 -4.22004e-011 1   
     length 1.05493   
     axis -90 -7.62852e-016 -20   XYZ
    dof rx
    limits (-90.0 20.0)
  end
  begin
     id 11 
     name lowerback
     direction -0.0115208 0.997969 -0.0626515   
     length 2.03153   
     axis 0 0 0   XYZ
    dof rx ry rz
    limits (-20.0 45.0)
           (-30.0 30.0)
           (-30.0 30.0)
  end
  begin
     id 12 
     name upperback
     direction -0.00423475 0.999974 -0.00583614   
     length 2.03619   
     axis 0 0 0   XYZ
    dof rx ry rz
    limits (-20.0 45.0)
           (-30.0 30.0)
           (-30.0 30.0)
  end
  begin
     id 13 
     name thorax
     direction 0.00289429 0.999728 0.0231573   
     length 2.03921   
     axis 0 0 0   XYZ
    dof rx ry rz
    limits (-20.0 45.0)
           (-30.0 30.0)
           (-30.0 30.0)
  end
  begin
     id 14 
     name lowerneck
     direction 0.0188995 0.987777 0.154721   
     length 1.78836   
     axis 0 0 0   XYZ
    dof rx ry rz
    limits (-20.0 45.0)
           (-30.0 30.0)
           (-30.0 30.0)
  end
  begin
     id 15 
     name upperneck
     direction -0.00612612 0.992995 -0.118   
     length 1.81789   
     axis 0 0 0   XYZ
    dof rx ry rz
    limits (-20.0 45.0)
           (-30.0 30.0)
           (-30.0 30.0)
  end
  begin
     id 16
     name head
     direction -0.00420226 0.998397 -0.0564482  
     length 1.82234  
     axis 0 0 0   XYZ
    dof rx ry rz
    limits (-20.0 45.0)
           (-30.0 30.0)
           (-30.0 30.0)
  end
  begin
     id 17 
     name lclavicle
     direction 0.916488 0.396539 0.0529676  
     length 3.51732  
     axis 0 0 0   XYZ
    dof ry rz
    limits (-20.0 10.0)
           (0.0 20.0)
  end
  begin
     id 18 
     name lhumerus
     direction 1 -4.4896e-011 8.36962e-028   
     length 5.45077   
     axis 180 -30 -90   XYZ
    dof rx ry rz
    limits (-60.0 90.0)
           (-90.0 90.0)
           (-90.0 90.0)
  end
  begin
     id 19
     name lradius
     direction 1 -4.48962e-011 3.01407e-027   
     length 3.05488   
     axis 180 -30 -90   XYZ
    dof rx
    limits (-10.0 170.0)
  end
  begin
     id 20
     name lwrist
     direction 1 -4.49002e-011 4.72961e-027   
     length 1.52744   
     axis -2.72261e-015 90 90   XYZ
    dof ry
    limits (-180.0 0.0)
 end
  begin
     id 21 
     name lhand
     direction 1 -4.4899e-011 9.45681e-027   
     length 0.638818   
     axis -6.0311e-015 90 90   XYZ
    dof rx rz
    limits (-90.0 90.0)
           (-45.0 45.0)
  end
  begin
     id 22 
     name lfingers
     direction 1 -4.48871e-011 1.88632e-026   
     length 0.515032   
     axis -1.20625e-014 90 90   XYZ
    dof rx
    limits (0.0 90.0)
  end
  begin
     id 23
     name lthumb
     direction 0.707107 -6.34964e-011 0.707107   
     length 0.739485   
     axis -90 45 6.32835e-014   XYZ
    dof rx rz
    limits (-45.0 45.0)
           (-45.0 45.0)
  end
  begin
     id 24 
     name rclavicle
     direction -0.949427 0.303202 0.0815894   
     length 3.76167  
     axis 0 0 0   XYZ 
    dof ry rz
    limits (-10.0 20.0)
           (-20.0 0.0)
  end
  begin
     id 25 
     name rhumerus
     direction -1 -4.48971e-011 -6.43969e-018  
     length 4.88702   
     axis 180 30 90   XYZ
    dof rx ry rz
    limits (-90.0 60.0)
           (-90.0 90.0)
           (-90.0 90.0)
  end
  begin
     id 26 
     name rradius
     direction -1 -4.48987e-011 5.46662e-027   
     length 3.22603   
     axis 180 30 90   XYZ
    dof rx
    limits (-10.0 170.0)
  end
  begin
     id 27 
     name rwrist
     direction -1 -4.48956e-011 4.72476e-027   
     length 1.61302   
     axis -2.72261e-015 -90 -90   XYZ
    dof ry
    limits (-180.0 0.0)
  end
  begin
     id 28
     name rhand
     direction -1 -4.4889e-011 9.43571e-027   
     length 0.716293   
     axis -6.0311e-015 -90 -90   XYZ
    dof rx rz
    limits (-90.0 90.0)
           (-45.0 45.0)
  end
  begin
     id 29
     name rfingers
     direction -1 -4.48887e-011 1.88701e-026   
     length 0.577494   
     axis -1.20625e-014 -90 -90   XYZ
    dof rx
    limits (0.0 90.0)
  end
  begin
     id 30
     name rthumb
     direction -0.707107 -6.34825e-011 0.707107   
     length 0.829169   
     axis -90 -45 -6.32835e-014   XYZ
    dof rx rz
    limits (-45.0 45.0)
           (-45.0 45.0)
  end
:hierarchy
  begin
    root lhipjoint rhipjoint lowerback
    lhipjoint lfemur
    lfemur ltibia
    ltibia lfoot
    lfoot ltoes
    rhipjoint rfemur
    rfemur rtibia
    rtibia rfoot
    rfoot rtoes
    lowerback upperback
    upperback thorax
    thorax lowerneck lclavicle rclavicle
    lowerneck upperneck
    upperneck head
    lclavicle lhumerus
    lhumerus lradius
    lradius lwrist
    lwrist lhand lthumb
    lhand lfingers
    rclavicle rhumerus
    rhumerus rradius
    rradius rwrist
    rwrist rhand rthumb
    rhand rfingers
  end

#!OML:ASF F:\VICON\USERDATA\INSTALL\rory3\rory3.ASF
:FULLY-SPECIFIED
:DEGREES
1966
root 0.615965 18.4556 -0.803735 61.3212 71.5505 41.4447
lowerback 6.29274 -0.506252 10.3394
upperback 2.32807 0.318067 6.56048
thorax -1.10446 0.27686 1.01818
lowerneck -6.64814 -19.6407 -10.3982
upperneck 15.5012 -27.8549 15.3253
head 9.65243 -12.5503 3.06388
rclavicle 6.36111e-015 -9.54166e-015
rhumerus 20.641 -48.094 -47.8966
rradius 51.932
rwrist -34.8675
rhand -36.7629 4.39308
rfingers 7.12502
rthumb -9.84591 -25.3567
lclavicle 6.36111e-015 -9.54166e-015
lhumerus -81.4915 -35.9372 110.16
lradius 84.4727
lwrist -10.7154
lhand -27.417 5.10842
lfingers 7.12502
lthumb -0.822823 35.0866
rfemur -28.6157 2.40855 -4.09776
rtibia 15.6477
rfoot -8.37715 4.83281
rtoes -16.0314
lfemur -23.0032 18.0525 -41.0234
ltibia 8.60125
lfoot -6.27107 -8.96411
ltoes -16.4568
1967
root 0.608431 18.4535 -0.817003 61.6146 71.4597 41.636
lowerback 6.41148 -0.48395 10.5219
upperback 2.37192 0.378673 6.60696
thorax -1.12026 0.309757 0.963494
lowerneck -6.61109 -19.6359 -10.4017
upperneck 15.4721 -27.8648 15.4618
head 9.66132 -12.5458 3.10731
rclavicle -2.22639e-014 6.36111e-015
rhumerus 20.5261 -48.0002 -47.8648
rradius 51.8654
rwrist -34.9448
rhand -36.7607 4.65726
rfingers 7.12502
rthumb -9.84373 -25.0926
lclavicle -2.22639e-014 6.36111e-015
lhumerus -81.4938 -36.0187 110.245
lradius 84.4355
lwrist -10.6436
lhand -27.2554 5.14923
lfingers 7.12502
lthumb -0.666802 35.1279
rfemur -28.7893 2.35816 -4.28029
rtibia 15.7122
rfoot -8.39015 4.79815
rtoes -16.3681
lfemur -23.1713 18.0221 -41.2099
ltibia 8.60995
lfoot -6.16004 -9.09663
ltoes -15.9214
1968
root 0.598945 18.4498 -0.831317 61.8997 71.3188 41.7704
lowerback 6.48961 -0.455073 10.6232
upperback 2.41069 0.436281 6.65666
thorax -1.11933 0.340938 0.956476
lowerneck -6.70413 -19.6385 -10.3632
upperneck 15.6204 -27.8776 15.4344
head 9.72148 -12.5344 3.08014
rclavicle -1.59028e-015 -2.22639e-014
rhumerus 20.371 -47.8195 -47.8296
rradius 51.8881
rwrist -35.2527
rhand -36.9812 4.75634
rfingers 7.12502
rthumb -10.0565 -24.9834
lclavicle -1.59028e-015 -2.22639e-014
lhumerus -81.3963 -36.0534 110.256
lradius 84.3961
lwrist -10.6404
lhand -27.1702 5.14385
lfingers 7.12502
lthumb -0.58451 35.1228
rfemur -29.0424 2.23262 -4.48751
rtibia 15.7739
rfoot -8.335 4.85871
rtoes -16.331
lfemur -23.4073 18 -41.4768
ltibia 8.61873
lfoot -6.13262 -9.18325
ltoes -16.0945
1969
root 0.590672 18.4475 -0.843175 61.9897 71.2735 41.7347
lowerback 6.60577 -0.451392 10.8009
upperback 2.42511 0.477553 6.73699
thorax -1.1658 0.36279 0.941286
lowerneck -6.62054 -19.6079 -10.3411
upperneck 15.6048 -27.8438 15.4996
head 9.70476 -12.5167 3.11321
rclavicle 1.27222e-014 2.22639e-014
rhumerus 20.2014 -47.5979 -47.8573
rradius 51.9829
rwrist -35.5906
rhand -37.0073 4.52553
rfingers 7.12502
rthumb -10.0817 -25.213
lclavicle 1.27222e-014 2.22639e-014
lhumerus -81.3547 -35.9631 110.225
lradius 84.4037
lwrist -10.6976
lhand -27.1023 5.11062
lfingers 7.12502
lthumb -0.51886 35.0897
rfemur -29.2438 2.18498 -4.57193
rtibia 15.8161
rfoot -8.29773 4.86683
rtoes -16.128
lfemur -23.6071 18.0064 -41.5885
ltibia 8.64102
lfoot -6.014 -9.22465
ltoes -15.706
1970
root 0.585217 18.4471 -0.85218 62.2426 71.2414 41.9208
lowerback 6.7135 -0.457953 10.9618
upperback 2.45269 0.500727 6.79653
thorax -1.19464 0.376384 0.914811
lowerneck -6.57547 -19.5868 -10.2414
upperneck 15.5964 -27.8181 15.5029
head 9.67639 -12.5016 3.11445
rclavicle -2.8625e-014 -6.36111e-014
rhumerus 20.088 -47.477 -47.8473
rradius 51.9075
rwrist -35.4873
rhand -36.2426 3.6508
rfingers 7.12502
rthumb -9.3439 -26.1221
lclavicle -2.8625e-014 -6.36111e-014
lhumerus -81.3897 -35.9415 110.272
lradius 84.4241
lwrist -10.6487
lhand -27.0293 5.13447
lfingers 7.12502
lthumb -0.448339 35.1137
rfemur -29.3357 2.09692 -4.6643
rtibia 15.843
rfoot -8.29122 4.87697
rtoes -16.471
lfemur -23.7313 17.9772 -41.6713
ltibia 8.68961
lfoot -5.91724 -9.29763
ltoes -15.181
1971
root 0.579614 18.4454 -0.861053 62.4011 71.1317 42.0229
lowerback 6.82944 -0.434056 11.0392
upperback 2.50933 0.556467 6.85969
thorax -1.19625 0.407328 0.935006
lowerneck -6.6725 -19.5792 -10.1224
upperneck 15.6439 -27.805 15.4399
head 9.68022 -12.4847 3.07577
rclavicle 1.59028e-015 -3.81667e-014
rhumerus 20.1225 -47.5452 -47.8994
rradius 51.7304
rwrist -34.8898
rhand -35.3404 2.97905
rfingers 7.12502
rthumb -8.4733 -26.831
lclavicle 1.59028e-015 -3.81667e-014
lhumerus -81.3483 -35.9619 110.305
lradius 84.3815
lwrist -10.61
lhand -26.9131 4.97897
lfingers 7.12502
lthumb -0.336189 34.9584
rfemur -29.4338 2.19725 -4.87355
rtibia 15.8583
rfoot -8.31566 4.75421
rtoes -16.4607
lfemur -23.853 18.0075 -41.8155
ltibia 8.73138
lfoot -5.86484 -9.45568
ltoes -14.8244
1972
root 0.572917 18.4418 -0.868248 62.4923 70.9612 42.0461
lowerback 6.94979 -0.382772 11.0567
upperback 2.56323 0.642061 6.88896
thorax -1.20147 0.451632 0.949614
lowerneck -6.72253 -19.569 -9.98115
upperneck 15.606 -27.7945 15.4489
head 9.65525 -12.4707 3.06239
rclavicle -7.63333e-014 -8.26944e-014
rhumerus 20.0334 -47.541 -47.923
rradius 51.7909
rwrist -34.9255
rhand -35.7199 2.97932
rfingers 7.12502
rthumb -8.83952 -26.8155
lclavicle -7.63333e-014 -8.26944e-014
lhumerus -81.2888 -36.002 110.275
lradius 84.4187
lwrist -10.5888
lhand -26.8751 4.9269
lfingers 7.12502
lthumb -0.299493 34.9064
rfemur -29.5915 2.32976 -5.12303
rtibia 15.8793
rfoot -8.30582 4.63376
rtoes -16.1069
lfemur -23.9992 18.081 -42.0119
ltibia 8.74127
lfoot -5.77843 -9.57863
ltoes -14.2358
1973
root 0.567237 18.4386 -0.876038 62.5941 70.7969 42.0912
lowerback 7.06556 -0.332422 11.0701
upperback 2.59623 0.726873 6.90962
thorax -1.22614 0.493974 0.95717
lowerneck -6.68823 -19.5706 -9.88939
upperneck 15.5673 -27.806 15.5032
head 9.6332 -12.4701 3.07165
rclavicle -3.18055e-015 1.11319e-013
rhumerus 19.8575 -47.3469 -47.8402
rradius 51.8878
rwrist -35.4085
rhand -36.4878 3.32322
rfingers 7.12502
rthumb -9.58046 -26.439
lclavicle -3.18055e-015 1.11319e-013
lhumerus -81.3119 -36.0425 110.329
lradius 84.4417
lwrist -10.5492
lhand -26.901 4.95479
lfingers 7.12502
lthumb -0.324476 34.9343
rfemur -29.7288 2.30386 -5.30976
rtibia 15.8946
rfoot -8.26575 4.69917
rtoes -16.2001
lfemur -24.1128 18.1467 -42.2082
ltibia 8.71953
lfoot -5.70234 -9.68866
ltoes -14.0185
1974
root 0.563742 18.4376 -0.884653 62.6134 70.6929 42.0587
lowerback 7.17668 -0.286634 11.1476
upperback 2.6282 0.812091 6.95596
thorax -1.24868 0.537491 0.956807
lowerneck -6.71884 -19.5871 -9.85536
upperneck 15.6041 -27.8335 15.514
head 9.65221 -12.4742 3.06221
rclavicle -4.77083e-015 -2.54444e-014
rhumerus 19.8064 -47.2456 -47.8123
rradius 51.8742
rwrist -35.5266
rhand -36.6806 3.50437
rfingers 7.12502
rthumb -9.76646 -26.2492
lclavicle -4.77083e-015 -2.54444e-014
lhumerus -81.2578 -36.0685 110.364
lradius 84.3875
lwrist -10.5808
lhand -26.86 4.79184
lfingers 7.12502
lthumb -0.284888 34.7714
rfemur -29.8269 2.32221 -5.44456
rtibia 15.9204
rfoot -8.27923 4.70567
rtoes -16.2246
lfemur -24.1796 18.2148 -42.3263
ltibia 8.65649
lfoot -5.61298 -9.84638
ltoes -13.6765
1975
root 0.557964 18.4369 -0.891965 62.7982 70.5821 42.1794
lowerback 7.25378 -0.26428 11.1321
upperback 2.65818 0.853773 7.00242
thorax -1.25866 0.559311 1.01054
lowerneck -6.79259 -19.5546 -9.77646
upperneck 15.6419 -27.7982 15.5264
head 9.6645 -12.4444 3.05696
rclavicle -2.70347e-014 1.08139e-013
rhumerus 19.8832 -47.1136 -47.8767
rradius 51.8327
rwrist -35.4653
rhand -36.8245 3.83957
rfingers 7.12502
rthumb -9.90531 -25.9074
lclavicle -2.70347e-014 1.08139e-013
lhumerus -81.1586 -36.0491 110.333
lradius 84.4121
lwrist -10.5013
lhand -26.9161 4.80077
lfingers 7.12502
lthumb -0.339085 34.7802
rfemur -29.9511 2.40513 -5.65332
rtibia 15.9615
rfoot -8.2951 4.6056
rtoes -16.4894
lfemur -24.2396 18.2322 -42.4837
ltibia 8.5526
lfoot -5.49565 -9.97011
ltoes -13.5186
1976
root 0.55474 18.4355 -0.898698 62.9875 70.4779 42.2927
lowerback 7.26406 -0.236883 11.1303
upperback 2.68589 0.890021 7.0248
thorax -1.23333 0.579267 1.03221
lowerneck -6.82457 -19.5168 -9.67083
upperneck 15.6356 -27.7624 15.5855
head 9.658 -12.4147 3.06824
rclavicle -7.95139e-015 4.45278e-014
rhumerus 19.9687 -46.9631 -47.9453
rradius 51.7645
rwrist -35.3857
rhand -37.2281 4.19551
rfingers 7.12502
rthumb -10.2946 -25.5325
lclavicle -7.95139e-015 4.45278e-014
lhumerus -81.1633 -36.1882 110.412
lradius 84.4407
lwrist -10.3543
lhand -27.0817 4.84709
lfingers 7.12502
lthumb -0.498996 34.8262
rfemur -30.0887 2.39205 -5.81866
rtibia 16.0081
rfoot -8.27857 4.57749
rtoes -16.2835
lfemur -24.278 18.2419 -42.6421
ltibia 8.43638
lfoot -5.33334 -10.0923
ltoes -12.8176
1977
root 0.552406 18.433 -0.904613 63.1993 70.3486 42.4339
lowerback 7.26515 -0.193722 11.1002
upperback 2.69544 0.943492 7.02822
thorax -1.22111 0.606047 1.04783
lowerneck -6.80414 -19.5 -9.5309
upperneck 15.6211 -27.7524 15.6153
head 9.63277 -12.4011 3.06777
rclavicle 2.22639e-014 -2.8625e-014
rhumerus 19.9586 -46.9559 -47.9766
rradius 51.7557
rwrist -35.1971
rhand -37.1273 4.04327
rfingers 7.12502
rthumb -10.1975 -25.6896
lclavicle 2.22639e-014 -2.8625e-014
lhumerus -81.2117 -36.3224 110.509
lradius 84.3822
lwrist -10.2722
lhand -27.2139 4.76131
lfingers 7.12502
lthumb -0.626698 34.7401
rfemur -30.2184 2.39797 -6.02176
rtibia 16.0599
rfoot -8.31566 4.54471
rtoes -16.449
lfemur -24.312 18.2526 -42.8319
ltibia 8.31871
lfoot -5.24062 -10.2259
ltoes -12.498
1978
root 0.550027 18.4299 -0.909072 63.218 70.3216 42.4247
lowerback 7.33118 -0.168683 11.1289
upperback 2.7015 0.993062 7.07734
thorax -1.24907 0.630713 1.07961
lowerneck -6.77263 -19.4945 -9.38459
upperneck 15.5999 -27.7418 15.5608
head 9.58763 -12.396 3.04299
rclavicle -6.52014e-014 -6.36111e-015
rhumerus 19.8389 -46.9644 -47.9419
rradius 51.8575
rwrist -35.0905
rhand -36.8068 3.7427
rfingers 7.12502
rthumb -9.88828 -26.0051
lclavicle -6.52014e-014 -6.36111e-015
lhumerus -81.3193 -36.3993 110.673
lradius 84.3869
lwrist -10.27
lhand -27.0531 4.76262
lfingers 7.12502
lthumb -0.471352 34.7418
rfemur -30.2758 2.45561 -6.09408
rtibia 16.083
rfoot -8.32997 4.50306
rtoes -16.3804
lfemur -24.3402 18.2863 -42.8815
ltibia 8.27438
lfoot -5.12894 -10.3517
ltoes -12.1322
1979
root 0.546873 18.4294 -0.913143 63.2125 70.3084 42.43
lowerback 7.41408 -0.173298 11.1506
upperback 2.7435 1.003 7.13246
thorax -1.25127 0.638113 1.12483
lowerneck -6.85861 -19.4953 -9.34965
upperneck 15.662 -27.7494 15.551
head 9.61895 -12.3882 3.02506
rclavicle 1.27222e-014 -3.81667e-014
rhumerus 19.9801 -47.0096 -48.0934
rradius 51.9146
rwrist -35.1122
rhand -36.8677 3.91453
rfingers 7.12502
rthumb -9.94698 -25.8304
lclavicle 1.27222e-014 -3.81667e-014
lhumerus -81.2759 -36.4003 110.717
lradius 84.3765
lwrist -10.3664
lhand -26.9747 4.74375
lfingers 7.12502
lthumb -0.395609 34.7231
rfemur -30.2727 2.45589 -6.11562
rtibia 16.0808
rfoot -8.35522 4.50247
rtoes -17.136
lfemur -24.3765 18.3232 -42.912
ltibia 8.28777
lfoot -5.02662 -10.4232
ltoes -11.7582
1980
root 0.545124 18.4289 -0.916022 63.1451 70.2925 42.2853
lowerback 7.40315 -0.153171 11.1461
upperback 2.7534 1.03162 7.20736
thorax -1.23476 0.654271 1.20397
lowerneck -6.91079 -19.5028 -9.36451
upperneck 15.7066 -27.7576 15.5292
head 9.64338 -12.3878 3.01217
rclavicle -1.90833e-014 9.54166e-014
rhumerus 20.1749 -47.0643 -48.2321
rradius 51.8445
rwrist -34.7418
rhand -36.3234 4.03644
rfingers 7.12502
rthumb -9.42182 -25.733
lclavicle -1.90833e-014 9.54166e-014
lhumerus -81.2418 -36.386 110.762
lradius 84.4096
lwrist -10.3601
lhand -26.7656 4.73861
lfingers 7.12502
lthumb -0.19365 34.7183
rfemur -30.3789 2.48718 -6.13495
rtibia 16.0785
rfoot -8.33536 4.49489
rtoes -17.1
lfemur -24.5156 18.3703 -42.9561
ltibia 8.3483
lfoot -5.0555 -10.4754
ltoes -11.8784
